<?xml version="1.0" encoding="UTF-8" standalone="no"?>
<svg
   xmlns:dc="http://purl.org/dc/elements/1.1/"
   xmlns:cc="http://creativecommons.org/ns#"
   xmlns:rdf="http://www.w3.org/1999/02/22-rdf-syntax-ns#"
   xmlns:svg="http://www.w3.org/2000/svg"
   xmlns="http://www.w3.org/2000/svg"
   xmlns:sodipodi="http://sodipodi.sourceforge.net/DTD/sodipodi-0.dtd"
   xmlns:inkscape="http://www.inkscape.org/namespaces/inkscape"
   viewBox="0 -25 100 100"
   x="0px"
   y="0px"
   version="1.1"
   id="svg120"
   sodipodi:docname="glowforge.svg"
   width="100"
   height="100"
   inkscape:version="0.92.2 2405546, 2018-03-11">
  <metadata
     id="metadata126">
    <rdf:RDF>
      <cc:Work
         rdf:about="">
        <dc:format>image/svg+xml</dc:format>
        <dc:type
           rdf:resource="http://purl.org/dc/dcmitype/StillImage" />
        <dc:title></dc:title>
      </cc:Work>
    </rdf:RDF>
  </metadata>
  <defs
     id="defs124" />
  <sodipodi:namedview
     pagecolor="#ffffff"
     bordercolor="#666666"
     borderopacity="1"
     objecttolerance="10"
     gridtolerance="10"
     guidetolerance="10"
     inkscape:pageopacity="0"
     inkscape:pageshadow="2"
     inkscape:window-width="1372"
     inkscape:window-height="999"
     id="namedview122"
     showgrid="false"
     inkscape:zoom="1.888"
     inkscape:cx="45.967456"
     inkscape:cy="32.534841"
     inkscape:window-x="12"
     inkscape:window-y="35"
     inkscape:window-maximized="0"
     inkscape:current-layer="svg120" />
  <path
     d="m 65.224609,-16.048828 c -1.909241,-0.0137 -3.819009,-0.0059 -5.728515,0.03125 -4.578097,0.0604 -9.155563,0.156817 -13.732422,0.279297 -4.592273,0.12506 -9.184159,0.29142 -13.773438,0.5 -3.975466,0.17891 -7.949238,0.369278 -11.919922,0.636719 -2.744913,0.178679 -5.490497,0.361354 -8.238281,0.490234 -1.464343,0.0646 -2.9302074,0.142928 -4.3964841,0.111328 -0.6153117,-0.0198 -1.2260052,-0.07959 -1.8339844,-0.177734 -1.8824516,-0.20916 -2.1793265,2.452949 -0.296875,2.662109 0.673567,0.1119 1.3534877,0.165106 2.0351563,0.191406 1.5375502,0.0364 3.0738282,-0.0436 4.6093752,-0.111328 2.76648,-0.12957 5.53134,-0.314271 8.294922,-0.494141 3.952839,-0.266259 7.909583,-0.454732 11.867187,-0.632812 4.573445,-0.20783 9.148181,-0.373497 13.72461,-0.498047 3.58728,-0.096 7.175628,-0.15957 10.763671,-0.21875 -0.02387,0.12726 -0.03362,0.242129 -0.03516,0.355469 -0.03173,0.14667 -0.05396,0.295795 -0.04687,0.447266 v 0.169921 0.214844 0.384766 c 2e-6,0.1539 1e-6,0.30898 0,0.46289 -4e-6,0.0783 7.5e-5,0.156075 0,0.234375 -1.44e-4,0.16276 1.19e-4,0.325522 0,0.488282 -10e-5,0.33352 -8.8e-5,0.6665 0.0039,1 0.0069,0.43667 0.02016,0.874597 0.04687,1.310546 0.01092,0.18433 0.0066,0.368415 0.01367,0.552735 h -0.002 c -0.433847,0.0855 -0.859106,0.209559 -1.253906,0.412109 -0.267052,0.13702 -0.351739,0.20747 -0.595703,0.375 -0.357035,0.27175 -0.694168,0.575795 -0.97461,0.927735 -0.190197,0.23869 -0.239104,0.334727 -0.394531,0.585937 -0.156875,0.26277 -0.260672,0.547598 -0.357422,0.835938 -0.07511,0.23345 -0.09494,0.449544 -0.07617,0.646484 -0.12607,0.49479 -0.404656,1.019675 0.146485,1.390625 0.0031,0.7982 0.414756,1.627861 0.410156,2.425781 -0.01619,0.82538 2.96e-4,1.65052 0.02734,2.47461 -0.830261,-0.62036 -1.651432,-1.253181 -2.408203,-1.962891 -0.553719,-0.51637 -1.104014,-1.039999 -1.580078,-1.630859 -0.463345,-0.57918 -1.060038,-0.665196 -1.550782,-0.478516 -0.342304,-0.044 -0.723711,0.05321 -1.089844,0.353516 -0.106935,0.0939 -0.03564,0.0348 -0.216796,0.166015 -0.713451,0.48931 -1.412577,0.999558 -2.105469,1.517578 -1.010273,0.77501 -2.011214,1.562062 -3.025391,2.332032 -1.363268,1.03655 -2.743084,2.049491 -4.109375,3.082031 -1.756705,1.34055 -3.492859,2.70734 -5.238281,4.0625 -1.991947,1.54493 -3.989084,3.083345 -6,4.603516 -2.080814,1.576469 -4.171716,3.141532 -6.269531,4.695312 -2.046519,1.53825 -4.100486,3.065902 -6.144531,4.607422 -3.295018,2.46629 -3.444642,2.624034 -6.3632818,5.089844 -0.5915235,0.47852 -1.1876282,0.953587 -1.8007812,1.404296 -1.5152288,1.13642 0.092193,3.278999 1.6074219,2.142579 0.6393014,-0.47024 1.2599393,-0.964001 1.8769531,-1.462891 3.023049,-2.58153 3.357767,-2.819206 6.294922,-5.035156 2.042684,-1.54048 4.093527,-3.068249 6.138672,-4.605469 2.100583,-1.55576 4.193812,-3.122652 6.277344,-4.701172 2.018992,-1.52621 4.023458,-3.070054 6.023437,-4.621094 1.739976,-1.35075 3.471469,-2.714561 5.222656,-4.050781 1.365299,-1.03124 2.743367,-2.044598 4.105469,-3.080078 1.017259,-0.77225 2.021795,-1.560601 3.035156,-2.337891 0.608809,-0.45453 1.222991,-0.899761 1.847656,-1.332031 0.397715,0.42647 0.810179,0.838008 1.236329,1.236328 1.24526,1.17171 2.641722,2.162738 4.011718,3.179688 0.140777,0.10541 0.282912,0.209233 0.423829,0.314453 0.09395,1.24112 0.220573,2.478903 0.308593,3.720703 0.0041,0.0604 0.0041,0.121201 0.0078,0.181641 -0.300551,-0.024 -0.601136,-0.04484 -0.902344,-0.05664 -0.307355,-0.0188 -0.615546,0.004 -0.921875,0.02734 -0.175654,0.013 -0.108332,0.01771 -0.201172,0.0078 -0.02161,-0.002 -0.04349,0.0021 -0.06445,-0.0039 -0.02206,-0.006 0.08784,0.0081 0.06836,-0.0039 -0.105423,-0.0643 -0.335549,-0.096 -0.451171,-0.123047 -0.443808,-0.0986 -0.812119,-0.0195 -1.09375,0.158203 C 50.104344,9.282007 49.781513,8.728843 49.490164,8.160153 49.319426,7.815523 49.154893,7.468324 48.997977,7.117185 49.788217,5.831495 48.10328,4.312213 46.861258,5.535153 c -0.0964,0.10127 -0.20117,0.194084 -0.3125,0.277344 -0.0048,0.004 -0.01091,0.0058 -0.01563,0.0098 -0.106969,0.0788 -0.218001,0.14997 -0.335937,0.21289 -0.488869,0.24953 -1.004985,0.43972 -1.492188,0.69336 -0.237137,0.1369 -0.367796,0.200303 -0.583984,0.371093 -0.348516,0.27533 -0.63729,0.610118 -0.863282,0.992188 -0.392176,0.70592 -0.178621,1.331771 0.251954,1.707031 0.01837,0.0527 0.0321,0.104223 0.05664,0.158203 0.321697,0.71265 0.744047,1.373986 1.158203,2.035157 0.464026,0.76738 1.023617,1.468791 1.617188,2.138671 0.136822,0.16122 0.297685,0.310827 0.390625,0.503907 0.01292,0.0248 0.02941,0.04291 0.04297,0.06641 0.07903,0.2313 0.223017,0.458462 0.46289,0.664062 0.380251,0.3256 0.747462,0.667304 1.125,0.996094 0.43837,0.40894 0.928934,0.750103 1.4375,1.064453 0.09476,0.0591 0.19558,0.104817 0.294922,0.154297 0.08575,0.29683 0.180962,0.591093 0.283203,0.882813 0.627312,1.78714 3.154656,0.900411 2.527344,-0.886719 -0.123071,-0.34999 -0.236352,-0.702833 -0.320312,-1.064453 -0.0072,-0.13685 -0.03734,-0.270471 -0.08789,-0.400391 -0.129728,-0.62023 -0.242824,-1.245403 -0.300781,-1.876953 -0.04099,-0.46694 -0.08382,-0.933124 -0.07422,-1.402344 0.01481,-0.1333 0.01209,-0.255877 0,-0.373047 0.298778,-0.012 0.597267,-0.0442 0.896484,-0.0332 0.313491,0.0122 0.626549,0.03389 0.939453,0.05469 0.0042,0.27342 0.06403,0.528502 0.203125,0.794922 0.02916,0.11535 0.06825,0.234158 0.128907,0.355468 0.262576,0.5083 0.56029,0.995363 0.86914,1.476563 0.334379,0.48605 0.670951,0.970482 0.97461,1.476562 0.179325,0.30153 0.329641,0.619325 0.496093,0.927735 0.05956,0.089 0.19494,0.311053 0.28711,0.376953 0.135287,0.0968 0.265913,0.238154 0.414062,0.308594 -0.0045,0.54792 -0.0111,1.096611 -0.01172,1.644531 -5.29e-4,0.99663 -1.96e-4,1.991661 0,2.988281 0.0031,0.89136 0.0078,1.782568 -0.02344,2.673828 -0.0348,0.73948 -0.125347,1.47968 -0.185547,2.21875 -0.05401,0.47462 -0.03386,0.949118 -0.0039,1.423828 0.0069,0.24302 0.05949,0.484523 0.103516,0.726563 0.0095,0.093 0.03622,0.18329 0.06641,0.275391 0.03925,0.0733 0.0876,0.128363 0.146484,0.183593 0.125844,0.7991 2.657059,0.784776 2.666016,-0.05859 v -0.0078 c 0.424605,0.75147 1.564929,1.069033 2.294922,0.0957 0.432774,-0.53869 0.805136,-1.12277 1.210937,-1.68164 0.657304,-0.8699 1.416627,-1.656701 2.148438,-2.462891 0.448766,-0.48931 0.879853,-0.993563 1.30664,-1.501953 1.217056,-1.45126 -0.835677,-3.171963 -2.052734,-1.720703 -0.403779,0.48202 -0.811363,0.960188 -1.236328,1.423828 -0.797438,0.87856 -1.623966,1.736473 -2.333985,2.689453 -0.397012,0.54774 -0.762398,1.118344 -1.185546,1.646484 -0.310536,0.41405 -0.371041,0.833123 -0.279297,1.195313 -0.01861,-0.0241 -0.04084,-0.04721 -0.06445,-0.07031 -0.0078,-0.0434 -0.01794,-0.0939 -0.01953,-0.107422 -0.04001,-0.22 -0.08795,-0.439236 -0.09375,-0.660156 -0.02831,-0.44774 -0.04826,-0.89608 0.0039,-1.34375 0.06081,-0.74772 0.151197,-1.49599 0.185547,-2.24414 0.03133,-0.89783 0.02859,-1.79543 0.02539,-2.69336 -1.97e-4,-0.99637 -5.29e-4,-1.991891 0,-2.988281 7.04e-4,-0.62349 0.0051,-1.247604 0.01172,-1.871094 0.192728,-0.32911 0.380958,-0.661159 0.589843,-0.980469 0.234269,-0.40561 0.519374,-0.773682 0.810547,-1.138672 0.251753,-0.316199 0.511485,-0.628335 0.759766,-0.947265 0.232082,-0.27774 0.373605,-0.597193 0.455078,-0.945313 0.272096,-0.26041 0.412456,-0.59133 0.384766,-1.03125 0.173,0.13725 0.343042,0.278246 0.515625,0.416016 0.0077,0.20514 0.02768,0.409994 0.02344,0.615234 -0.02675,0.59645 -0.05112,1.192123 -0.03125,1.789063 0.0092,0.32727 0.05366,0.651412 0.08984,0.976562 -0.0024,0.003 -0.0054,0.0048 -0.0078,0.0078 -1.232621,1.43806 0.800582,3.180247 2.033204,1.742187 0.243465,-0.28882 0.505476,-0.558579 0.779296,-0.818359 0.370802,-0.32612 0.750594,-0.642418 1.132813,-0.955078 0.0094,-0.008 0.01982,-0.01388 0.0293,-0.02148 1.844511,1.57898 3.657809,3.19382 5.472656,4.80664 2.142878,1.93419 4.289014,3.863324 6.482422,5.740234 1.903025,1.61683 3.830261,3.205183 5.810547,4.726563 1.490435,1.14648 3.032282,2.22472 4.542969,3.34375 0.639951,0.51059 1.3133,0.984292 1.912109,1.544922 0.219729,0.20572 0.310619,0.321189 0.501953,0.542969 0.0067,0.01 0.0018,0.005 0.0078,0.01367 -0.415863,0.354469 -0.837112,0.701705 -1.265625,1.041015 -1.705407,1.33054 -3.425121,2.641617 -5.134766,3.966797 -2.455697,1.91861 -4.990041,3.733026 -7.486328,5.597656 -2.455378,1.85537 -4.938589,3.675462 -7.429688,5.482422 -2.117563,1.51723 -4.249551,3.012688 -6.353515,4.548828 -1.616799,1.18417 -3.25426,2.340768 -4.916016,3.460938 -1.165215,0.76759 -7.20292,5.338142 -8.345703,6.138672 -1.078438,0.7466 -0.599268,3.411841 2.136719,1.988281 1.129635,-0.79145 6.555139,-5.14747 7.707031,-5.90625 1.689314,-1.13917 3.354349,-2.313468 4.998047,-3.517578 2.101535,-1.53469 4.230743,-3.028902 6.345703,-4.544922 2.501235,-1.81432 4.993573,-3.641036 7.458984,-5.503906 2.508926,-1.87429 5.057446,-3.698173 7.525391,-5.626953 1.717071,-1.33095 3.443613,-2.647815 5.15625,-3.984376 0.720036,-0.57056 1.433646,-1.15007 2.107422,-1.77539 0.700682,-0.62283 0.616899,-1.424101 0.183594,-1.925781 -0.03153,-0.12401 -0.07392,-0.25051 -0.142579,-0.38086 -0.322721,-0.57732 -0.143921,-0.29996 -0.539062,-0.83789 -0.318484,-0.35956 -0.389289,-0.456032 -0.753906,-0.794922 -0.652935,-0.60687 -1.382642,-1.127088 -2.080078,-1.679688 -1.498424,-1.10929 -3.027149,-2.178453 -4.50586,-3.314453 -1.943321,-1.4921 -3.831692,-3.052922 -5.699218,-4.638672 -2.180831,-1.86584 -4.314596,-3.784381 -6.445313,-5.707031 -1.803344,-1.60258 -3.605764,-3.207104 -5.4375,-4.777344 0.124759,-0.25956 0.245506,-0.521007 0.373047,-0.779297 0.370796,-0.72872 0.754277,-1.45093 1.121094,-2.18164 0.26254,-0.52814 0.541258,-1.047596 0.810546,-1.572266 C 72.766218,9.911643 73.213718,8.30167 71.884699,7.64067 71.524588,7.46571 71.149065,7.329132 70.788995,7.154342 70.340987,6.952182 69.885641,6.762984 69.419855,6.605514 c -0.373307,-0.112 -0.699262,-0.08707 -0.970703,0.01953 -0.355077,0.004 -0.726834,0.155447 -1.048828,0.523438 -0.380662,0.457969 -0.7198,0.949091 -1.083985,1.419921 C 65.973949,8.999863 65.64404,9.44077 65.31048,9.87895 65.049976,9.75758 64.73136,9.712196 64.357355,9.79497 c -0.259973,0.0609 -0.520324,0.123906 -0.789063,0.128906 -0.0191,4.8e-4 -0.03758,-0.002 -0.05664,-0.002 -0.258309,-0.20177 -0.519847,-0.399309 -0.779297,-0.599609 -0.0079,-0.18816 -0.01727,-0.376323 -0.02539,-0.564454 -0.03998,-1.572879 -0.06727,-3.14578 -0.0078,-4.71875 0.07576,-1.793929 0.161148,-3.588892 0.236328,-5.382812 0.0154,-0.54932 0.219809,-0.750631 0.224609,-1.300781 0.110549,-0.13155 0.02121,-0.618224 0.0918,-0.777344 0.05567,-0.12551 0.08984,-0.260885 0.134766,-0.390625 0.118399,-0.50396 0.0056,-0.990247 -0.160157,-1.466797 -0.211044,-0.58023 -0.533283,-0.938929 -1.029296,-1.292969 -0.278129,-0.18046 -0.553772,-0.364952 -0.835938,-0.539062 -0.458697,-0.27031 -0.956344,-0.441584 -1.474609,-0.552734 -0.208542,-0.0471 -0.419371,-0.0775 -0.63086,-0.103516 -0.0077,-0.20056 -0.0018,-0.401013 -0.01367,-0.601563 -0.02436,-0.39734 -0.03677,-0.795359 -0.04297,-1.193359 -0.0038,-0.31911 -0.004,-0.637911 -0.0039,-0.957031 1.22e-4,-0.16233 0.0018,-0.325952 0.002,-0.488281 7.6e-5,-0.0791 -4e-6,-0.157229 0,-0.236329 v -0.46289 -0.384766 -0.214844 -0.169921 c 1.67e-4,-0.0155 -1.17e-4,0.0052 0,-0.0078 0.02116,-0.1 0.03431,-0.225834 0.03516,-0.302734 -0.02837,0.0969 -0.08612,0.300523 0.03711,-0.154297 0.01588,-0.10913 0.01561,-0.220038 0.01563,-0.330078 -7.4e-5,-0.0211 7.5e-5,-0.04424 0,-0.05664 -3.4e-5,-0.002 2.7e-5,-0.0039 0,-0.0059 0.08205,-0.001 0.164049,-0.0049 0.246094,-0.0059 3.785484,-0.0747 7.570975,-0.02795 11.355469,0.06445 2.903902,0.08 5.805098,0.210927 8.707031,0.341797 2.23788,0.10699 4.475432,0.215757 6.714844,0.285156 1.523404,0.0597 3.04791,0.106813 4.572265,0.132813 0.867038,0.0223 1.733356,-0.01653 2.59961,-0.04883 3.004454,-0.57858 1.073495,-2.806964 -0.09961,-2.677734 -0.817782,0.0305 -1.636553,0.06993 -2.455078,0.04883 -1.511946,-0.0257 -3.022198,-0.0737 -4.533203,-0.132813 -2.226805,-0.0689 -4.45245,-0.177013 -6.677734,-0.283203 -2.92039,-0.13171 -5.841296,-0.26345 -8.763672,-0.34375 -1.90901,-0.0465 -3.817322,-0.082 -5.726563,-0.0957 z m -8.660156,3.166016 c -1.21e-4,0.0639 -0.0015,0.122801 0,0.201171 2e-4,0.01 -0.0019,-0.0193 -0.002,-0.0293 -5.58e-4,-0.0548 -0.0079,-0.109862 0,-0.164062 3.85e-4,-0.003 0.0016,-0.0048 0.002,-0.0078 z m 2.708985,7.830078 c 0.02847,0.006 0.05757,0.007 0.08594,0.01367 0.213005,0.0345 0.405563,0.110384 0.597656,0.208984 0.129636,0.0793 0.255537,0.165007 0.382813,0.248047 -0.02211,0.0724 -0.034,0.151792 -0.04492,0.232422 -0.170701,0.0855 -0.344846,0.164295 -0.525391,0.228515 -0.395725,0.14952 -0.812728,0.244022 -1.232422,0.294922 -0.115144,0.01 -0.230393,0.01118 -0.345703,0.01758 0.544277,-0.0973 1.028129,-0.5014 1.082032,-1.24414 z m -2.640626,0.15625 c 0.112704,0.6902 0.625234,1.048638 1.169922,1.105468 -0.240873,-7.2e-4 -0.481621,-0.0178 -0.720703,-0.0625 -0.342168,-0.062 -0.674624,-0.162162 -0.998047,-0.289062 -0.02579,-0.0992 -0.05416,-0.193987 -0.0918,-0.279297 0.08643,-0.0921 0.175402,-0.182636 0.279296,-0.259766 0.120569,-0.09 0.237449,-0.159043 0.361328,-0.214843 z m 3.324219,2.77539 c 0.471565,-0.04287 0.97453,0.249126 1.035157,0.916016 0.03135,0.5352 0.05732,1.069799 0.08008,1.605469 0.02099,0.78789 0.04288,1.575511 0.06836,2.363281 0.03688,0.70277 0.06804,1.405855 0.08594,2.109375 0.01082,0.50962 0.0071,1.020087 0.03125,1.529297 0.02234,0.40313 0.03454,0.805314 0.04102,1.208984 0.0044,0.33761 0.0059,0.676042 0.0059,1.013672 -0.01698,1.335307 -0.147275,2.67283 -0.128907,3.976562 0.01185,0.726822 -1.31741,2.437914 -1.826172,0.429688 -0.204675,-1.462518 0.05794,-2.942197 0.06055,-4.40625 -3.5e-5,-0.32765 3.3e-4,-0.654802 -0.0039,-0.982422 -0.0061,-0.38407 -0.01773,-0.768794 -0.03906,-1.152344 -0.02442,-0.52287 -0.0235,-1.045079 -0.0332,-1.568359 -0.01768,-0.69914 -0.04993,-1.399246 -0.08594,-2.097656 -0.02526,-0.78144 -0.04791,-1.5622 -0.06836,-2.34375 -0.02136,-0.50524 -0.04716,-1.010705 -0.07422,-1.515625 -0.06063,-0.666895 0.379998,-1.043069 0.851562,-1.085938 z M 46.566406,9.201172 c 0.09434,-0.106818 0.65748,0.513342 1.775391,2.271484 0.280604,0.3607 0.550784,0.725046 0.765625,1.128906 0.07107,0.1429 0.126957,0.293237 0.185547,0.441407 0.04715,0.11924 0.103957,0.223669 0.166015,0.318359 0.0048,0.13688 0.01058,0.273406 0.01953,0.410156 -0.11277,-0.1009 -0.225822,-0.201301 -0.339844,-0.300781 -0.0114,-0.0243 -0.01652,-0.04767 -0.0293,-0.07227 -0.205479,-0.384071 -0.468698,-0.731959 -0.767578,-1.048829 -1.243263,-1.671643 -1.896688,-3.0111 -1.775391,-3.148437 z m 22.519532,0.146484 c 0.006,0.002 0.01163,0.0048 0.01758,0.0078 -0.206262,0.39581 -0.415202,0.791416 -0.613282,1.191406 -0.367977,0.73593 -0.755146,1.461282 -1.126953,2.195313 -0.02965,0.06 -0.04807,0.12643 -0.08594,0.18164 -1.828884,2.66662 -1.635433,1.865561 -0.558594,-0.449219 0.06918,-0.10587 0.140251,-0.21077 0.214844,-0.3125 0.48698,-0.6628 0.993146,-1.312421 1.503906,-1.957031 0.218853,-0.28409 0.432992,-0.570832 0.648438,-0.857422 z M 51.291016,22.875 c -0.837297,0.0483 -1.613588,0.879188 -1.132813,1.960938 0.334442,0.67403 0.79612,1.270451 1.253906,1.863281 0.665447,0.81014 1.279316,1.658074 1.873047,2.521484 0.371333,0.56122 0.190397,0.284104 0.546875,0.833985 1.030514,1.589159 3.27856,0.132118 2.248047,-1.457032 -0.379199,-0.58461 -0.185339,-0.287151 -0.58789,-0.894531 -0.62195,-0.90399 -1.264893,-1.793618 -1.960938,-2.642578 -0.327905,-0.42395 -0.659977,-0.84555 -0.925781,-1.3125 C 52.317003,23.098997 51.793393,22.84603 51.291016,22.875 Z m 17.132812,6.074219 c -0.191412,-0.016 -0.403288,0.006 -0.628906,0.07813 -1.161652,0.36947 -2.32666,0.727453 -3.480469,1.121094 -0.669522,0.229179 -1.342768,0.448482 -1.994141,0.726562 -1.73079,0.76924 -0.642901,3.218459 1.087891,2.449219 0.580461,-0.24274 1.178574,-0.437025 1.773438,-0.640625 1.135436,-0.38704 2.282715,-0.739986 3.425781,-1.103516 1.57933,-0.50229 1.156293,-2.518999 -0.183594,-2.630859 z m -19.507812,0.345703 c -1.341023,-0.0973 -2.072162,1.829152 -0.589844,2.570312 0.623455,0.31033 1.30291,0.474391 1.972656,0.650391 0.520053,0.12692 1.041714,0.247224 1.5625,0.371094 1.842645,0.43821 2.461787,-2.167249 0.619141,-2.605469 -0.500423,-0.119 -1.001959,-0.234679 -1.501953,-0.355469 -0.491051,-0.12899 -0.993321,-0.239891 -1.455078,-0.457031 -0.21176,-0.10588 -0.415848,-0.159928 -0.607422,-0.173828 z m -26.091797,2.996094 c -0.260531,-0.0126 -0.522125,-0.01003 -0.935547,0.01367 -1.278317,0.0731 -2.534108,0.373404 -3.705078,0.890624 -0.759433,0.386321 -1.0146,0.486534 -1.730469,0.970704 -1.198253,0.81043 -2.235489,1.832148 -3.183594,2.917968 -0.247898,0.30475 -0.505451,0.602043 -0.74414,0.914063 -1.181144,1.54399 -2.129212,3.254082 -2.8925785,5.039062 -0.3429514,0.86524 -0.4771867,1.156619 -0.7539063,2.042969 -0.4096699,1.3122 -0.6835075,2.666389 -0.7929687,4.03711 -0.014379,0.33107 -0.040179,0.66277 -0.042969,0.99414 -0.012242,1.4535 0.2067747,2.907843 0.7578124,4.257813 0.098997,0.21298 0.1893421,0.429872 0.296875,0.638671 0.4610524,0.89527 1.0935691,1.686203 1.9746101,2.195313 0.139244,0.0715 0.273721,0.147591 0.416015,0.212891 0.566768,0.25998 1.184625,0.422106 1.808594,0.441406 1.894036,0 1.894036,-2.679688 0,-2.679688 -0.349428,-0.0268 -0.673059,-0.17516 -0.974609,-0.34375 -0.557186,-0.36626 -0.823287,-0.993488 -1.085938,-1.580078 -0.395797,-1.0206 -0.533605,-2.118674 -0.515625,-3.208984 0.0044,-0.26779 0.02735,-0.535265 0.04102,-0.802734 0.100847,-1.16522 0.342585,-2.314968 0.695312,-3.429688 0.241514,-0.76325 0.366851,-1.036796 0.666016,-1.785156 0.681379,-1.58071 1.521432,-3.095858 2.574219,-4.460938 0.207381,-0.26889 0.431052,-0.524619 0.646484,-0.787109 0.805078,-0.91384 1.680611,-1.780361 2.699219,-2.457031 0.528428,-0.35105 0.781922,-0.454495 1.345703,-0.734375 1.093129,-0.45432 2.275089,-0.669588 3.458984,-0.617188 0.231177,0.0102 0.460884,0.04035 0.691406,0.06055 1.161561,0.16219 2.271073,0.563928 3.289063,1.142578 0.215108,0.12227 0.420258,0.260735 0.630859,0.390625 1.411193,0.92747 2.585581,2.14709 3.730469,3.375 0.917355,0.97926 1.826141,1.967124 2.789063,2.902344 0.715138,0.69456 0.853771,0.79971 1.603515,1.462891 1.139725,0.965059 2.363277,1.828022 3.677735,2.539062 0.849926,0.45976 1.136679,0.565215 2.017578,0.953125 1.581472,0.63586 3.221899,1.141309 4.912109,1.386719 0.310404,0.0451 0.623945,0.0715 0.935547,0.107422 1.248072,0.096 2.510077,0.0276 3.728516,-0.271485 0.812995,-0.19954 1.002792,-0.306071 1.779296,-0.613281 1.460468,-0.6624 2.719646,-1.658159 3.816407,-2.818359 0.216119,-0.22862 0.419398,-0.468435 0.628906,-0.703125 0.988759,-1.19713 1.819319,-2.530889 2.371094,-3.986328 0.102274,-0.26977 0.18355,-0.546813 0.27539,-0.820313 0.300008,-1.00698 0.440826,-2.049509 0.416016,-3.099609 -0.01406,-0.59515 -0.04923,-0.775039 -0.121094,-1.361328 -0.07912,-0.61233 -0.22304,-1.211757 -0.36914,-1.810547 -0.451977,-1.83932 -3.051587,-1.200648 -2.59961,0.638671 0.12358,0.49866 0.242927,0.999596 0.310547,1.509766 0.06082,0.46009 0.08399,0.548938 0.101563,1.017578 0.02871,0.76602 -0.06916,1.528865 -0.28125,2.265625 -0.06801,0.20972 -0.126805,0.422067 -0.203125,0.628907 -0.436485,1.182909 -1.108932,2.263231 -1.902344,3.238281 -0.174989,0.19799 -0.344976,0.4007 -0.525391,0.59375 -0.841968,0.90096 -1.797091,1.693096 -2.917969,2.222656 -0.571004,0.23497 -0.715525,0.317206 -1.314453,0.472656 -0.943217,0.24481 -1.925132,0.300975 -2.894531,0.234375 -0.2593,-0.0284 -0.519038,-0.04964 -0.777344,-0.08594 -1.477417,-0.20792 -2.911585,-0.649379 -4.294922,-1.199219 -0.759962,-0.33145 -1.022267,-0.428263 -1.753906,-0.820312 -1.15908,-0.62111 -2.239492,-1.379563 -3.24414,-2.226563 -0.684892,-0.60418 -0.826491,-0.715059 -1.480469,-1.349609 -0.941278,-0.91332 -1.830056,-1.877385 -2.726563,-2.833985 -1.31179,-1.40456 -2.665264,-2.789477 -4.291015,-3.835937 -0.266349,-0.16123 -0.526941,-0.330722 -0.798828,-0.482422 -1.332512,-0.74348 -2.787157,-1.243094 -4.302735,-1.433594 -0.409985,-0.0307 -0.669157,-0.05771 -0.929687,-0.07031 z"
     id="path114"
     inkscape:connector-curvature="0" />
</svg>
