<?xml version="1.0" encoding="UTF-8" standalone="no"?>
<svg
   xmlns:dc="http://purl.org/dc/elements/1.1/"
   xmlns:cc="http://creativecommons.org/ns#"
   xmlns:rdf="http://www.w3.org/1999/02/22-rdf-syntax-ns#"
   xmlns:svg="http://www.w3.org/2000/svg"
   xmlns="http://www.w3.org/2000/svg"
   xmlns:sodipodi="http://sodipodi.sourceforge.net/DTD/sodipodi-0.dtd"
   xmlns:inkscape="http://www.inkscape.org/namespaces/inkscape"
   viewBox="0 -25 100 100"
   x="0px"
   y="0px"
   version="1.1"
   id="svg68"
   sodipodi:docname="3dprinter.svg"
   width="100"
   height="100"
   inkscape:version="0.92.2 2405546, 2018-03-11">
  <metadata
     id="metadata74">
    <rdf:RDF>
      <cc:Work
         rdf:about="">
        <dc:format>image/svg+xml</dc:format>
        <dc:type
           rdf:resource="http://purl.org/dc/dcmitype/StillImage" />
        <dc:title></dc:title>
      </cc:Work>
    </rdf:RDF>
  </metadata>
  <defs
     id="defs72" />
  <sodipodi:namedview
     pagecolor="#ffffff"
     bordercolor="#666666"
     borderopacity="1"
     objecttolerance="10"
     gridtolerance="10"
     guidetolerance="10"
     inkscape:pageopacity="0"
     inkscape:pageshadow="2"
     inkscape:window-width="1372"
     inkscape:window-height="999"
     id="namedview70"
     showgrid="false"
     units="px"
     viewbox-height="125"
     viewbox-y="-25"
     inkscape:zoom="6.256"
     inkscape:cx="27.146346"
     inkscape:cy="42.292944"
     inkscape:window-x="12"
     inkscape:window-y="35"
     inkscape:window-maximized="0"
     inkscape:current-layer="svg68" />
  <path
     d="m 72.505267,-19.1195 c -0.08137,0.37231 -0.09328,0.48598 -0.222656,0.8457 -0.231463,0.64356 -0.581907,1.23479 -0.978515,1.78906 -0.326694,0.41543 -0.41052,0.54051 -0.779297,0.92774 -0.621846,0.65296 -1.322659,1.22784 -2.070313,1.73047 -0.540426,0.33493 -0.66594,0.42196 -1.224609,0.72656 -0.848164,0.46244 -1.728843,0.86259 -2.611328,1.25391 -1.585438,0.67155 -3.182363,1.3152 -4.802735,1.89843 -1.525779,0.56099 -3.064427,1.09925 -4.654297,1.45117 -1.261155,0.2957 -2.531349,0.57164 -3.755859,1 -4.306981,1.48659 -4.947784,2.64758 -5.329493,6.70182 -0.04664,0.70731 -0.07973,1.4227 -0.05859,2.13281 -0.228999,0.13688 -0.454424,0.27909 -0.691406,0.40234 -1.102665,0.60891 -2.218817,1.19498 -3.341797,1.76563 -1.102138,0.56138 -2.212177,1.10764 -3.332031,1.63281 -0.259646,0.12121 -0.519201,0.24133 -0.78125,0.35742 -0.02131,-0.008 -0.04316,-0.0151 -0.06445,-0.0234 v 0.002 c -1.64528,0.2354 -1.229356,2.26656 -1.148438,2.94141 -0.0659,0.49098 -0.097,0.98666 -0.123047,1.48047 -0.05208,0.98096 -0.0974,0.80189 -0.05916,1.78265 -0.145474,0.007 -0.288889,0.0326 -0.431641,0.0605 -0.01632,-0.002 -0.07032,-0.005 -0.03906,-0.006 -0.227374,-0.0392 -0.456158,-0.0709 -0.6875,-0.0605 -0.04491,6e-5 -0.132574,10e-4 -0.158204,0.002 -0.166169,0.002 -0.331901,-0.005 -0.498046,-0.006 -0.801436,-0.015 -1.60364,-0.0416 -2.404297,-0.0801 -1.702898,-0.0792 -3.406208,-0.1351 -5.109364,-0.20899 -2.609851,0.13188 -6.838059,-0.18416 -12.178488,-0.14797 -0.803023,0.0216 -6.5602645,0.18452 -7.3635602,0.19252 -0.384741,0.0139 -0.7693063,0.0327 -1.1523438,0.0723 -1.8940359,0 -1.8940359,2.67969 0,2.67969 0.4158238,-0.0268 0.8295588,-0.0598 1.2460938,-0.0742 0.795737,-0.008 6.5466192,-0.16917 7.3420762,-0.19057 4.83761,-0.23931 7.919069,0.15176 12.022237,0.14601 1.689719,0.0735 3.38083,0.12853 5.070313,0.20703 0.825234,0.0398 1.650526,0.0684 2.476562,0.084 0.190211,0.002 0.380074,0.007 0.570313,0.006 0.04706,-9.9e-4 0.09356,-0.002 0.140625,-0.002 h 0.05859 c 0.08863,-6e-5 0.14499,2e-5 0.144531,0 -0.227905,-0.01 -0.0032,0.0165 0.02344,0.0215 0.218915,0.0447 0.439054,0.0437 0.658204,0.0254 -0.157017,0.7515 0.534312,3.18082 0.756417,3.30915 0.490333,0.2216 0.974926,0.45855 1.46289,0.68554 0.873126,0.42231 1.771179,0.78542 2.666016,1.15821 0.236034,0.0961 0.469112,0.19979 0.703125,0.30078 0.004,0.006 0.0057,0.0118 0.0098,0.0176 0.398544,0.57825 0.839754,1.12521 1.287109,1.66601 0.530869,0.63551 1.035778,1.29232 1.521484,1.96289 0.386615,0.55342 0.781625,1.10241 1.21875,1.61719 0.06198,0.0723 0.125823,0.14225 0.1875,0.21485 -0.06658,0.1569 -0.102149,0.30858 -0.11914,0.45312 -0.162421,0.25712 -0.239497,0.5807 -0.171875,0.95703 -0.109652,0.31014 -0.26106,0.60409 -0.398438,0.90235 -0.171348,0.36078 -0.346314,0.72032 -0.539062,1.07031 -0.206634,0.34602 -0.425931,0.68235 -0.658204,1.01172 -0.429684,0.56479 -1.127455,1.1299 -1.625103,1.56445 -0.446224,0.37985 -0.915247,0.73706 -1.412157,1.06385 -0.876132,0.33319 -1.743371,0.68598 -2.585751,1.08263 -1.079236,0.52328 -2.127001,1.09431 -3.166775,1.67688 -0.897427,0.49837 -1.791594,1.00026 -2.699262,1.48392 -0.518414,0.2904 -1.034274,0.58656 -1.531442,0.90503 -0.549398,0.36573 -0.680227,0.84976 -0.554089,1.26706 -0.246283,0.20699 -0.409795,0.51774 -0.409795,0.93065 1.9e-5,0.8131 -0.0054,1.62548 0.0097,2.43848 0.0077,1.33141 0.09307,2.65909 0.188545,3.98729 0.08423,1.18501 0.234157,2.36523 0.363621,3.54672 0.0965,0.80678 0.189299,1.61637 0.198164,2.42823 -0.0068,0.55766 -0.04122,1.11416 -0.01924,1.67176 0.01572,0.27478 0.03519,0.54803 0.04425,0.82307 1.97e-4,0.10721 0.02374,0.21348 0.04041,0.31933 -0.269055,0.59284 -0.471968,1.39629 -0.101968,1.80324 0.566607,0.50309 1.130639,1.00792 1.704595,1.50441 1.044699,0.90194 2.188334,1.70708 3.322613,2.51703 1.24255,0.87596 2.538714,1.68842 3.82668,2.5102 1.044568,0.66676 2.073042,1.35307 3.084046,2.05939 0.574319,0.41005 1.152004,0.81471 1.743073,1.20558 0.22298,0.14278 0.456201,0.27334 0.70608,0.37567 0.13806,0.009 0.27852,0.0356 0.41749,0.0546 0.339378,0.50204 1.077829,0.79142 1.877748,0.36543 0.665541,-0.37582 1.325913,-0.76021 1.973944,-1.15947 1.034012,-0.64632 2.038633,-1.32754 3.057111,-1.99279 1.155754,-0.76919 2.363792,-1.47304 3.557331,-2.19429 0.843172,-0.50169 1.663388,-1.03329 2.501098,-1.54198 0.07575,-0.0452 0.151411,-0.0895 0.227023,-0.1349 0.163393,-0.098 0.323829,-0.19858 0.486752,-0.29713 -0.09945,0.0498 -0.0396,0.0195 0.05002,-0.0205 0.01444,-0.007 -0.05847,0.0199 -0.04233,0.0205 0.05198,0.002 0.252104,-0.10316 0.265501,-0.10928 0.151793,-0.0501 0.352565,-0.14427 0.51946,-0.22541 0.208182,-0.10152 0.446185,-0.26777 0.567557,-0.3364 0.168397,-0.0907 0.345629,-0.18629 0.532925,-0.25956 0.170798,-0.0691 0.333689,-0.14822 0.488677,-0.23906 0.751737,0.0726 1.56664,-0.38771 1.460256,-1.33195 -0.04609,-0.48784 -0.05088,-0.97761 -0.05964,-1.46684 -0.026,-0.73852 -0.07153,-1.47662 -0.138523,-2.21307 -0.06739,-0.76869 -0.137218,-1.53682 -0.178925,-2.307 -0.05551,-0.80092 -0.01717,-1.60249 0.03078,-2.40261 0.0541,-0.8462 0.119804,-1.69218 0.155837,-2.53923 0.02496,-0.76366 0.02617,-1.52644 0.05771,-2.28992 0.05328,-0.70152 0.100919,-1.40279 0.128904,-2.10549 0.01708,-0.47518 0.02171,-0.95218 0.02309,-1.42757 -0.01598,-0.24904 0.04386,-0.49166 0.08658,-0.73598 0.048,-0.18595 0.08309,-0.37357 0.117359,-0.56181 -0.193229,-1.83942 -1.73943,-1.93607 -3.330308,-2.81757 -0.900847,-0.50638 -1.78738,-1.02997 -2.687768,-1.53686 -1.075176,-0.59074 -2.146034,-1.19156 -3.262971,-1.71957 -1.003576,-0.50228 -2.015373,-0.99262 -2.993622,-1.53344 -0.155004,-0.0886 -0.307774,-0.17974 -0.461742,-0.26981 -0.270425,-0.23726 -0.217063,-0.52362 -0.44613,-0.83399 -0.344386,-0.50363 -0.635941,-1.0426 -0.863281,-1.60938 -0.246743,-0.63825 -0.432264,-1.29759 -0.527344,-1.97656 -0.06204,-0.46864 -0.108691,-0.93992 -0.06055,-1.41211 0.0101,-0.0216 0.02109,-0.0428 0.03125,-0.0645 0.05852,-0.0949 0.102372,-0.19053 0.134766,-0.28711 0.133554,-0.2771 0.257357,-0.55873 0.394531,-0.83399 0.385931,-0.76563 0.793083,-1.52193 1.212891,-2.26953 0.242806,-0.4453 0.491275,-0.88521 0.767578,-1.31054 0.241238,-0.40474 0.504972,-0.79401 0.763672,-1.1875 0.06377,-0.0987 0.126379,-0.19852 0.1875,-0.29883 0.04368,-0.0532 -0.0083,0.0126 0.136719,-0.1875 0.02053,-0.0283 -0.08349,0.11249 -0.05859,0.0879 0.07339,-0.0724 0.150924,-0.20331 0.208984,-0.28711 0.02107,-0.0311 0.03539,-0.0656 0.05469,-0.0977 0.464656,-0.24297 0.923996,-0.49505 1.390625,-0.73437 0.406248,-0.22835 0.833617,-0.42087 1.242187,-0.64454 l 0.002,-0.002 c 0.108871,-0.0835 0.174713,-0.13008 0.248047,-0.18359 0.31322,-0.0164 0.626266,-0.0356 0.939453,-0.0449 0.147852,-0.56886 0.114751,-0.29509 0.125,-0.81641 -0.01371,-0.40161 -0.149886,-0.70888 -0.347656,-0.93359 -0.161055,-0.68124 -0.246121,-1.37769 -0.318359,-2.07422 0.398742,-0.032 0.796079,-0.0678 1.195312,-0.0937 1.424235,-0.0883 2.851325,-0.12397 4.277344,-0.16797 9.557418,-0.17999 4.269798,-0.43888 13.494093,-0.46177 2.25771,-0.003 3.107472,0.0649 5.365184,0.065 1.689215,0.0252 4.785819,-0.0279 6.47466,0.017 1.21241,0.0333 2.42593,0.0748 3.63672,0.14648 0.69255,0.0457 1.38446,0.0906 2.07812,0.11523 0.44842,0.0259 0.89565,-0.002 1.33789,-0.0762 0.70053,-0.16962 1.12826,-0.51802 1.23633,-1.42773 0.0402,-0.33864 -0.26313,-0.62866 -0.39453,-0.94336 -0.58634,-0.65125 -1.31664,-0.60195 -1.81836,-0.23828 -0.0915,10e-4 -0.17931,0.0167 -0.26758,0.01 -0.67256,-0.0234 -1.34413,-0.0695 -2.01562,-0.11328 -1.23972,-0.0727 -2.47936,-0.11689 -3.7207,-0.15039 -1.712425,-0.045 -4.834132,-0.0389 -6.54693,-0.0636 -2.259779,0 -3.111267,-0.0224 -5.371044,-0.0184 -9.626093,0.14911 -4.284251,0.1525 -13.570264,0.46373 -1.456532,0.045 -2.914448,0.0794 -4.369141,0.16992 -0.430258,0.0281 -0.859366,0.0667 -1.289062,0.10156 -0.06889,-0.67946 -0.139747,-1.35853 -0.197266,-2.03906 -0.01548,-0.29281 -0.02849,-0.44037 -0.02539,-0.72461 2.1e-4,-0.0189 0.01313,-0.36875 0.01953,-0.43945 0.0024,-0.027 0.0078,-0.0533 0.01172,-0.0801 C 55.648224,5.95408 55.340968,4.19038 54.439504,4.10782 53.754293,3.84789 53.06384,3.60253 52.392629,3.30703 51.481097,2.91949 50.571475,2.52512 49.712942,2.02774 48.733046,1.75627 48.748957,1.00003 48.718801,0.15664 c 0.01237,-0.25669 0.01157,-0.51477 0.0293,-0.76953 0.298292,-3.45302 0.509174,-3.12615 3.581446,-4.36978 1.123759,-0.38523 2.288258,-0.63542 3.44336,-0.90625 1.695969,-0.37613 3.338659,-0.94528 4.966797,-1.54297 1.661049,-0.5982 3.298425,-1.25896 4.923828,-1.94727 0.947714,-0.41894 1.893553,-0.84887 2.804687,-1.34375 0.643938,-0.34976 0.770729,-0.43971 1.394531,-0.82421 0.916519,-0.6072 1.775472,-1.30529 2.539013,-2.09758 0.479605,-0.49766 0.572998,-0.6413 1,-1.17578 0.548004,-0.748 1.026308,-1.54962 1.353515,-2.41993 0.209617,-0.55753 0.223842,-0.6991 0.361329,-1.27734 -0.150272,-2.49434 -2.762555,-1.70932 -2.611336,-0.60175 z M 45.853795,4.4495 c 0.194563,0.5034 -0.02825,1.37249 0.239397,1.83928 0.78946,1.31577 2.53389,-0.67773 2.616629,-1.83733 0.515574,0.24393 2.108944,1.09703 2.633929,1.32031 0.02564,0.0114 0.05242,0.02 0.07813,0.0312 l -0.0078,0.004 c -1.097471,0.55616 -2.208587,1.08807 -3.339843,1.57227 -0.655493,0.27347 -1.315719,0.54532 -2,0.73828 -0.02754,0.007 -0.04978,0.0189 -0.07617,0.0273 -0.03058,-0.0135 -0.05643,-0.0349 -0.08789,-0.0469 C 45.777099,8.04671 45.646111,8.00991 45.527365,7.94947 45.277059,7.80914 45.023947,7.67503 44.751974,7.58033 44.348039,7.43278 43.934013,7.31996 43.515646,7.22096 42.887283,7.0601 42.260669,6.8937 41.628927,6.74635 c -0.03618,-0.009 -0.07132,-0.0218 -0.107422,-0.0312 0.559456,-0.27469 1.124317,-0.53953 1.679688,-0.82227 1.496526,-0.80561 1.132316,-0.71136 2.652602,-1.44335 z m 6.900111,3.67773 c -6.34e-4,0.28765 -0.0038,0.57598 0.0098,0.86133 0.106401,1.32151 0.256296,2.63906 0.380859,3.95899 0.08049,0.86267 0.170053,1.72577 0.322266,2.57812 -0.229039,0.11658 -0.456376,0.23069 -0.675781,0.34961 -0.377331,0.19353 -0.748782,0.39817 -1.125,0.59375 -0.378605,0.004 -0.756848,0.17322 -1.027344,0.54102 -0.335876,0.17905 -0.67657,0.34901 -1.009766,0.5332 -0.505359,0.26105 -1.00708,0.52821 -1.511718,0.79101 -0.01348,-0.17242 -0.01773,-0.34548 -0.03516,-0.51757 -0.09821,-0.95528 -0.214354,-1.90817 -0.271484,-2.86719 -0.06395,-1.14209 -0.116886,-2.28468 -0.160156,-3.42774 -0.02113,-0.36198 -0.03612,-0.72555 -0.0625,-1.08789 0.510646,-0.17974 1.016285,-0.37473 1.515625,-0.58203 1.192937,-0.5092 2.364424,-1.07056 3.521484,-1.65625 0.04361,-0.0217 0.08544,-0.0464 0.128906,-0.0684 z m -4.75,13.25391 c -0.236162,0.42729 -0.465446,0.85824 -0.691406,1.29101 -0.179227,-0.24339 -0.352647,-0.49173 -0.527344,-0.73828 0.259188,-0.10855 0.518049,-0.21697 0.773438,-0.33203 0.150472,-0.0693 0.296113,-0.1488 0.445312,-0.2207 z M 47.034697,32.292 c 0.124886,0.0608 0.249617,0.12155 0.373242,0.18438 0.565619,0.3006 1.1107,0.63002 1.660345,0.95285 0.296852,0.23726 0.607563,0.34941 0.906167,0.5851 0.30255,0.25573 0.686604,0.34952 1.033155,0.55595 0.249057,0.15466 0.505811,0.29576 0.781114,0.40983 0.190913,0.0602 0.381512,0.11868 0.577176,0.16563 1.223609,0.40908 2.616616,1.3631 3.649663,1.931 0.891972,0.50353 1.771692,1.02266 2.664632,1.5249 0.0589,0.034 0.119666,0.0655 0.178925,0.099 -0.147979,0.0675 -0.295777,0.13497 -0.444426,0.2015 -0.467131,0.2402 -0.931696,0.4837 -1.406387,0.71208 -0.958442,0.48327 -1.921426,0.95931 -2.883958,1.4361 -1.130625,0.56091 -2.259283,1.12602 -3.363016,1.72811 -0.891857,0.4884 -1.777407,0.98571 -2.685794,1.44977 -0.205135,0.10187 -0.412785,0.19965 -0.619503,0.29883 -0.500408,-0.0762 -0.846404,0.5362 -1.550681,0.50375 -0.136802,-0.0776 -0.272596,-0.15743 -0.413643,-0.22882 -0.662506,-0.36054 -1.336869,-0.70261 -1.989334,-1.07751 -1.04215,-0.60387 -2.08259,-1.21028 -3.130221,-1.80666 -1.119274,-0.64932 -2.205822,-1.34036 -3.272591,-2.05597 -0.774253,-0.49839 -1.554604,-1.00352 -2.420293,-1.37122 v 0.002 c -0.102811,-0.0415 -0.202251,-0.0721 -0.300132,-0.0939 0.791731,-0.42683 1.577289,-0.86343 2.362576,-1.29949 0.996066,-0.55648 1.998192,-1.10555 3.0321,-1.60516 0.158432,-0.0743 0.32088,-0.14055 0.48098,-0.21175 0.237171,0.0127 0.529092,-0.23905 0.803051,-0.36061 0.46881,-0.20756 0.883744,-0.23326 1.319035,-0.49149 0.02785,-0.0172 0.05313,-0.0373 0.0808,-0.0546 0.436524,-0.17635 0.868111,-0.36324 1.306344,-0.53619 0.286335,-0.11438 0.569167,-0.23671 0.854221,-0.35348 0.217368,-0.0953 0.432375,-0.19034 0.640666,-0.30054 0.218526,-0.1157 0.428741,-0.2466 0.654133,-0.35177 0.237547,-0.0999 0.473249,-0.20098 0.702231,-0.31591 0.152287,-0.0706 0.29259,-0.15746 0.419423,-0.22571 z m 13.555953,8.24434 c -0.0022,0.0655 -0.01469,0.13047 -0.01154,0.19637 -0.0013,0.44995 -0.0051,0.89925 -0.02116,1.34902 -0.02769,0.70164 -0.07791,1.40323 -0.128903,2.10379 -0.03137,0.76271 -0.03429,1.52531 -0.05771,2.28821 -0.03522,0.83497 -0.0993,1.6675 -0.151989,2.50166 -0.05256,0.87917 -0.0904,1.75999 -0.03078,2.63997 0.0436,0.79568 0.114571,1.58971 0.184696,2.38384 0.06319,0.68577 0.101171,1.37342 0.12698,2.06109 0.0038,0.2143 0.02266,0.42772 0.02886,0.64207 -0.05658,0.0373 -0.114068,0.073 -0.169305,0.11953 -0.08425,0.0511 -0.17687,0.0928 -0.265501,0.1349 -0.271725,0.12095 -0.54195,0.24788 -0.798429,0.39275 -0.158077,0.0902 -0.290171,0.18446 -0.429034,0.25956 -0.338252,0.14974 -0.526074,0.22785 -0.825364,0.35347 -0.303836,0.16558 -0.589192,0.35613 -0.888852,0.52765 -0.835638,0.508 -1.654393,1.03907 -2.495326,1.54028 -1.220054,0.73753 -2.454717,1.45735 -3.636212,2.24381 -0.817877,0.53438 -1.63192,1.07186 -2.454924,1.60004 0.01006,-0.16758 0.03511,-0.33408 0.04041,-0.50205 0.01879,-0.70595 -0.0061,-1.41178 -0.03078,-2.11744 -0.0439,-1.0385 -0.100528,-2.07717 -0.119283,-3.1164 -0.0464,-1.55452 -0.066,-3.10864 -0.09235,-4.66351 -0.01893,-1.67085 -0.0024,-3.34267 0.0038,-5.01357 0.0011,-0.1587 0.0038,-0.31764 0.0058,-0.47642 0.0053,-0.005 0.01421,-0.006 0.01924,-0.012 -0.683905,-0.94015 0.42576,-1.09732 0.442502,-1.44977 0.175294,-0.0849 0.352811,-0.16621 0.527155,-0.25273 0.941906,-0.47946 1.859982,-0.99503 2.783915,-1.50099 1.071509,-0.58433 2.167379,-1.1307 3.264895,-1.67517 0.967856,-0.47946 1.935588,-0.95869 2.899349,-1.44465 0.480785,-0.2309 0.952183,-0.47822 1.425627,-0.72062 0.21636,-0.0901 0.42535,-0.19166 0.638741,-0.28688 0.07472,-0.0308 0.143107,-0.0713 0.21548,-0.10587 z"
     id="path62"
     inkscape:connector-curvature="0" />
</svg>
