<?xml version="1.0" encoding="UTF-8" standalone="no"?>
<svg
   xmlns:dc="http://purl.org/dc/elements/1.1/"
   xmlns:cc="http://creativecommons.org/ns#"
   xmlns:rdf="http://www.w3.org/1999/02/22-rdf-syntax-ns#"
   xmlns:svg="http://www.w3.org/2000/svg"
   xmlns="http://www.w3.org/2000/svg"
   xmlns:sodipodi="http://sodipodi.sourceforge.net/DTD/sodipodi-0.dtd"
   xmlns:inkscape="http://www.inkscape.org/namespaces/inkscape"
   viewBox="0 -25 100 100"
   x="0px"
   y="0px"
   version="1.1"
   id="svg248"
   sodipodi:docname="xcarve.svg"
   width="100"
   height="100"
   inkscape:version="0.92.2 2405546, 2018-03-11">
  <metadata
     id="metadata254">
    <rdf:RDF>
      <cc:Work
         rdf:about="">
        <dc:format>image/svg+xml</dc:format>
        <dc:type
           rdf:resource="http://purl.org/dc/dcmitype/StillImage" />
        <dc:title></dc:title>
      </cc:Work>
    </rdf:RDF>
  </metadata>
  <defs
     id="defs252" />
  <sodipodi:namedview
     pagecolor="#ffffff"
     bordercolor="#666666"
     borderopacity="1"
     objecttolerance="10"
     gridtolerance="10"
     guidetolerance="10"
     inkscape:pageopacity="0"
     inkscape:pageshadow="2"
     inkscape:window-width="1372"
     inkscape:window-height="999"
     id="namedview250"
     showgrid="false"
     inkscape:zoom="1.888"
     inkscape:cx="50"
     inkscape:cy="62.5"
     inkscape:window-x="12"
     inkscape:window-y="35"
     inkscape:window-maximized="0"
     inkscape:current-layer="svg248" />
  <path
     d="m 94.050781,-15.332031 c -0.739056,-0.0025 -1.475166,0.08717 -2.210937,0.167968 -1.228684,0.12228 -2.455039,0.270782 -3.685547,0.363282 -1.727307,0.12839 -3.457149,0.213822 -5.1875,0.232422 -2.291127,0.0278 -4.581864,-0.01431 -6.873047,-0.0039 -2.915548,9e-4 -5.830564,0.0022 -8.746094,0.01563 -3.243738,0.0175 -6.488794,0.05029 -9.732422,0.08789 -3.328999,0.018 -6.657661,0.05063 -9.986328,0.115234 -3.195434,0.04985 -6.390276,0.05883 -9.585937,0.04883 -2.902159,-7.49e-4 -5.804873,-0.002 -8.707031,0 -2.598347,0.0035 -5.196879,0.006 -7.794922,0.0625 -2.262657,0.06004 -4.523836,0.154389 -6.783204,0.324219 -1.692202,0.12739 -3.383289,0.290857 -5.0761714,0.404297 -0.928815,0.0566 -1.8588026,0.120556 -2.7890625,0.09766 -0.4582655,-0.003 -0.9170271,-0.01979 -1.375,0.0039 -1.4864748,0.20916 -1.2520998,2.871279 0.234375,2.662109 0.3758991,0.0077 0.7528245,0.0087 1.1289063,0.01172 0.9684894,0.02336 1.9353437,-0.04081 2.9023437,-0.09961 1.7008729,-0.11329 3.3994439,-0.27845 5.0996089,-0.40625 2.232338,-0.16772 4.467539,-0.261112 6.703126,-0.320312 2.584038,-0.0563 5.167617,-0.0595 7.751953,-0.0625 2.901271,-0.0012 5.803807,0.0012 8.705078,0.002 2.940103,0.0092 5.878447,-0.007 8.818359,-0.04687 0.01893,0.185172 0.0453,0.369604 0.06445,0.554687 0.05354,0.573642 0.12849,1.144635 0.210938,1.714844 -0.0742,0.01943 -0.150699,0.02814 -0.22461,0.04883 -0.603797,0.189 -1.199795,0.40663 -1.732421,0.75586 -0.609005,0.380625 -0.780088,0.941989 -0.673829,1.439453 -0.210008,0.256336 -0.333898,0.610325 -0.292968,1.060547 0.03872,0.54847 0.08083,1.095178 0.132812,1.642578 0.06489,0.58323 0.09385,1.169559 0.109375,1.755859 0.01109,0.5011 0.0097,1.002716 0.0098,1.503907 -1.49e-4,0.35352 3.08e-4,0.707016 0,1.060546 -2.04e-4,0.24856 1.8e-5,0.497524 0,0.746094 -0.0073,0.28304 1.62e-4,0.56381 0.04492,0.84375 0.01191,0.08377 0.04113,0.180506 0.04883,0.253906 -0.0054,0.115821 0.0161,0.220628 0.05273,0.320313 2.33e-4,-0.02361 -3.77e-4,-0.02203 0,-0.04492 0.0022,0.03505 0.01489,0.06207 0.01953,0.0918 0.02816,0.07004 0.05648,0.13979 0.08594,0.210937 0.0066,0.0158 -0.01409,-0.03148 -0.02148,-0.04687 -0.01057,0.05212 -0.01328,0.02393 -0.02148,0.05078 0.0069,0.02381 0.006,0.04506 0.01367,0.07227 -0.0029,-0.0049 -0.01277,-0.0374 -0.01953,-0.06055 -0.0017,0.0048 -0.0023,0.008 -0.0039,0.01172 0.03822,0.297089 0.147062,0.537356 0.302735,0.722656 0.07032,0.379443 0.311291,0.744513 0.791015,0.984375 0.279668,0.136128 0.569587,0.250309 0.861329,0.357422 -0.0079,0.104572 -0.0071,0.215066 0.0059,0.332032 0.03322,0.288669 0.05129,0.5789 0.0625,0.86914 0.01496,0.25815 0.06651,0.512121 0.08789,0.769531 0.0045,0.06133 0.0061,0.122144 0.0078,0.183594 0.0028,0.0055 0.0018,9.28e-4 0.0059,0.01172 0.32927,0.86769 0.117463,0.919592 0.708985,1.294922 0.111015,0.04534 0.219076,0.09652 0.332031,0.136718 0.01312,0.0047 0.02016,0.0025 0.04102,0.0078 0.03795,0.01328 0.07578,0.02778 0.09766,0.03516 0.0026,7.25e-4 0.0052,0.0012 0.0078,0.002 -0.03591,0.029 0.08579,0.03428 0.128907,0.05078 0.151445,0.058 0.125295,0.04671 0.291015,0.09961 0.232593,0.06828 0.472451,0.09549 0.712891,0.117187 0.05863,0.005 0.110605,3.11e-4 0.166016,0 -0.04535,0.147863 -0.07813,0.30882 -0.07813,0.492188 0.004,0.61791 0.04878,1.233529 0.09375,1.849609 0.05406,0.68875 0.09931,1.378047 0.158203,2.066407 6.11e-4,0.0078 0.0013,0.01562 0.002,0.02344 -0.649223,0.53864 -0.778882,1.677745 0.261719,2.255859 0.06464,0.03944 0.13666,0.06393 0.203125,0.09961 0.332479,0.490623 0.882094,0.641025 1.376953,0.529297 0.380389,0.08975 0.766986,0.133876 1.15625,0.158203 -0.12883,0.13045 -0.25239,0.266191 -0.388672,0.388672 -1.144186,1.001161 -0.232957,2.492037 0.908203,2.398437 -0.0034,0.475309 -0.0049,0.950507 -0.01367,1.425781 -0.164768,0.195832 -0.323853,0.396373 -0.498047,0.583985 -0.294302,0.31768 -0.600341,0.625562 -0.917969,0.919922 -1.171875,1.171878 0.133564,2.768326 1.375,2.251953 -0.0028,0.418117 -0.0081,0.835781 -0.0098,1.253906 -0.09111,0.125468 -0.190117,0.244709 -0.277344,0.373047 -0.226291,0.33045 -0.464764,0.653408 -0.6875,0.986328 -0.788336,1.05113 3.94e-4,2.144366 0.9375,2.210938 -0.0028,0.383304 6.5e-5,0.767108 -0.0078,1.15039 -0.07056,0.07613 -0.140613,0.152262 -0.208985,0.230469 -0.255587,0.27541 -0.500583,0.559945 -0.763672,0.828125 -1.025724,1.02572 -0.155485,2.370917 0.910157,2.345703 -2.5e-5,0.0033 2.4e-5,0.0065 0,0.0098 -0.0094,0.01354 -0.02009,0.02309 -0.0293,0.03711 -0.281295,0.43259 -0.597405,0.842198 -0.88086,1.273438 -1.050622,1.5759 1.177894,3.060305 2.228516,1.484375 0.04205,-0.06252 0.08615,-0.12352 0.128906,-0.185547 0.08001,-0.006 0.184176,-0.02587 0.306641,-0.06055 1.31881,1.123532 3.073285,-0.673009 1.785156,-1.982422 -0.03329,-0.0334 -0.06632,-0.06621 -0.09961,-0.09961 -0.240848,-0.25293 -0.43123,-0.548266 -0.646485,-0.822266 -0.03405,-0.0454 -0.07168,-0.07926 -0.107421,-0.119141 0.0081,-0.628249 0.02276,-1.256683 0.03906,-1.884765 0.220085,-0.248602 0.452627,-0.48661 0.677734,-0.730469 0.168854,-0.18277 0.336709,-0.363521 0.494141,-0.556641 0.896093,-1.124035 -0.09296,-2.352886 -1.138672,-2.234375 6.5e-5,-0.343779 0.0077,-0.687433 0.0078,-1.03125 2.71e-4,-0.110005 0.0017,-0.220073 0.002,-0.330078 0.004,-0.0051 0.0077,-0.01052 0.01172,-0.01563 0.292497,-0.3635 0.597809,-0.716497 0.882812,-1.085937 0.04441,-0.05883 0.0884,-0.116981 0.132812,-0.175782 0.810508,-1.074017 -0.03397,-2.193203 -1,-2.21289 0.0034,-0.296802 0.0012,-0.593836 0.0059,-0.890625 0.0029,-0.172579 0.0065,-0.344998 0.0098,-0.517578 0.365845,-0.436557 0.693923,-0.903542 1.015624,-1.373047 0.249795,-0.39208 0.129251,-0.19057 0.365235,-0.59961 0.686418,-1.20048 -0.368538,-2.228534 -1.353516,-2.058593 -0.0022,-0.201331 -0.01441,-0.402163 -0.01758,-0.603516 0.168597,-0.177295 0.347481,-0.344124 0.509766,-0.527344 0.0456,-0.0548 0.03745,-0.05136 0.06641,-0.08594 0.452696,-0.01812 0.904404,-0.047 1.351563,-0.126953 0.423579,-0.06441 0.810128,-0.24051 1.185546,-0.4375 0.328009,-0.163461 0.597442,-0.409027 0.847657,-0.671875 0.810281,0.105044 1.704756,-0.512046 1.492187,-1.646485 -0.0052,-0.0266 -0.01042,-0.05348 -0.01563,-0.08008 -0.07139,-0.4315 -0.07699,-0.87195 -0.121094,-1.30664 -0.0383,-0.74657 -0.09135,-1.491802 -0.130859,-2.238282 -0.04945,-0.60614 -0.106831,-1.212856 -0.181641,-1.816406 -0.0054,-0.05901 -0.02116,-0.109206 -0.03125,-0.164062 0.476805,-0.191451 0.851193,-0.652149 0.81836,-1.376953 -0.01042,-0.225991 -0.0051,-0.108744 -0.01953,-0.345704 -0.02786,-0.35023 -0.07942,-0.697265 -0.111329,-1.046875 -0.0339,-0.333371 -0.0746,-0.666218 -0.103515,-1 0.830527,0.151564 1.785982,-0.482942 1.558594,-1.652343 -0.05963,-0.3062 -0.129275,-0.611672 -0.177735,-0.919922 -0.124775,-0.75781 -0.191837,-1.521103 -0.210937,-2.289063 -0.02154,-1.07477 -0.0077,-2.150019 0.02148,-3.224609 0.01268,-0.6823 0.02094,-1.365122 -0.05078,-2.044922 -0.08059,-0.725272 -0.526912,-1.12 -1.03125,-1.232422 -0.258982,-0.281126 -0.626474,-0.457959 -1.03125,-0.435547 -0.003,-0.122523 -0.006,-0.244757 -0.01172,-0.367187 -0.01849,-0.36539 -0.04854,-0.730653 -0.07227,-1.095703 -3.03e-4,-0.121804 -0.0015,-0.243432 -0.002,-0.365235 0.09546,-0.172774 0.16121,-0.379677 0.185547,-0.623047 0.03959,-0.345576 0.03972,-0.692609 0.02148,-1.039062 2.324315,-0.02424 4.648273,-0.05003 6.972657,-0.0625 2.912702,-0.0137 5.825563,-0.01474 8.738281,-0.01563 2.297718,-0.01 4.594915,0.02945 6.892578,0.002 1.764931,-0.01877 3.529181,-0.105778 5.291016,-0.236328 1.244492,-0.09311 2.485885,-0.243728 3.728515,-0.367188 0.67781,-0.06864 1.354472,-0.164203 2.035157,-0.158203 0.0151,-0.0072 0.06171,-10e-4 0.09961,0.0039 1.427772,0.46887 1.975032,-2.090648 0.539063,-2.58789 -0.207749,-0.0584 -0.414494,-0.108003 -0.628907,-0.0957 z M 46.783203,6.533203 c -0.02989,-0.05925 0.0087,0.15079 0.0039,0.111328 -6.41e-4,-0.03725 -0.0029,-0.07408 -0.0039,-0.111328 z m -2.119141,-4.21875 c -0.0013,-0.01014 -8.18e-4,-0.02098 -0.002,-0.03125 0.0012,0.0041 0.0037,0.01211 0.0059,0.01953 0.0018,-0.0051 0.0039,-0.0053 0.0059,-0.01172 -0.0092,-0.03162 -0.01201,-0.06674 -0.01953,-0.0957 -2.44e-4,-0.004 -0.0017,-0.0077 -0.002,-0.01172 -0.0082,-0.03241 -0.01607,-0.07272 -0.02148,-0.107422 -0.0063,-0.01562 -0.01374,-0.03112 -0.01953,-0.04687 -0.0024,0.243495 0.01108,0.380702 0.05273,0.285156 z m 12.830079,-14.103515 c 0.0015,0.156418 -0.0059,0.312206 -0.0039,0.46875 0.0061,0.5131 0.0086,1.025922 0.0098,1.539062 0.0151,0.40806 0.05409,0.814856 0.07422,1.222656 0.0078,0.17146 0.01253,0.344035 0.01563,0.515625 0.0083,0.461599 0.174978,0.804891 0.419922,1.03711 -0.375747,0.109658 -0.758602,0.172008 -1.148438,0.210937 -0.6068,0.06241 -1.212981,0.137613 -1.820312,0.195313 -0.764638,0.05883 -1.529854,0.10854 -2.296875,0.11914 -0.797765,0.015 -1.598673,0.0441 -2.392579,-0.05664 -0.600043,-0.0758 -1.204063,-0.159064 -1.763671,-0.402344 -0.02101,-0.0089 -0.03964,-0.02218 -0.06055,-0.03125 0.276944,-0.05673 0.552739,-0.117576 0.832031,-0.162109 0.235487,0.100296 0.478675,0.184575 0.726563,0.248046 0.183516,0.0552 0.369385,0.09665 0.558593,0.126954 0.205808,0.0326 0.106373,0.0081 0.195313,0.0332 0.297035,0.0768 0.598971,0.09882 0.904297,0.09961 0.275332,-0.01709 0.544744,-0.07333 0.810547,-0.144531 0.05243,-0.0163 0.06584,-0.01334 0.101562,-0.01367 0.20025,0.0061 0.39672,-0.02941 0.591797,-0.07031 0.157436,-0.0255 0.315677,-0.04729 0.470703,-0.08789 0.05879,-0.0108 0.166216,-0.05553 0.07227,-0.01953 0.10355,0.008 0.359501,-0.07164 0.451172,-0.08594 0.163444,-0.0011 0.316895,-0.04704 0.466796,-0.09961 0.520152,-5.45e-4 0.740942,-0.219989 1.064454,-0.544922 0.03716,-0.05715 0.07675,-0.113075 0.111328,-0.171875 0.0107,-0.01818 0.01668,-0.04232 0.02734,-0.0625 0.0095,-0.01314 0.02019,-0.02562 0.0293,-0.03906 0.09511,-0.14043 0.134008,-0.315729 0.179688,-0.474609 0.01176,-0.04746 0.009,-0.09648 0.01367,-0.144531 0.01497,-0.0614 0.02404,-0.145275 0.02539,-0.253907 -0.0019,0.0084 -0.01246,0.07488 -0.002,0.05859 0.01594,-0.0247 0.0097,-0.05879 0.01367,-0.08789 0.0068,-0.04978 0.01313,-0.09864 0.01953,-0.148437 0.05125,-0.37594 0.04936,-0.752836 0.0039,-1.128906 -0.02054,-0.27711 -0.100086,-0.496398 -0.185546,-0.773438 -0.04848,-0.09403 -0.104583,-0.182131 -0.164063,-0.269531 -0.16542,-0.224847 -0.316815,-0.414629 -0.460937,-0.578125 0.703065,-0.0053 1.406302,-0.01955 2.109375,-0.02344 z m 10.08789,6.544921 c -1.887409,-0.1583 -2.112018,2.511622 -0.224609,2.669922 0.179482,0.0129 0.360427,0.01736 0.539062,0.03906 0.649626,0.07881 1.27693,0.281963 1.865235,0.564453 0.441645,0.23109 0.917426,0.478315 1.1875,0.916015 0.155546,0.319081 0.09317,0.642471 -0.03125,0.962891 -0.08104,0.16366 -0.128107,0.273958 -0.234375,0.423828 -0.259046,0.36532 -0.579135,0.686497 -0.921875,0.972657 -0.50399,0.41458 -1.0351,0.800771 -1.626953,1.082031 -0.285508,0.1202 -0.582681,0.220925 -0.896485,0.203125 -1.894036,0 -1.894036,2.677734 0,2.677734 0.650547,0.02516 1.272164,-0.159499 1.873047,-0.386719 0.85788,-0.37277 1.623416,-0.914973 2.345703,-1.501953 0.614327,-0.5181 1.184896,-1.104825 1.601563,-1.796875 0.08389,-0.13933 0.153268,-0.286547 0.230468,-0.429687 0.352149,-0.77072 0.525389,-1.63151 0.363282,-2.47461 -0.03443,-0.17907 -0.09793,-0.351583 -0.146485,-0.527343 -0.373322,-0.95341 -1.055188,-1.641695 -1.917968,-2.171875 -0.178713,-0.10982 -0.367215,-0.203188 -0.550782,-0.304688 -0.836385,-0.41465 -1.73152,-0.71434 -2.658203,-0.84375 -0.264651,-0.037 -0.530777,-0.04972 -0.796875,-0.07422 z m -7.882812,0.400391 c -0.0011,0.0606 -7.97e-4,0.121056 -0.002,0.181641 -0.0304,1.10913 -0.04339,2.218805 -0.02148,3.328125 0.01973,0.89409 0.10452,1.783485 0.246094,2.666015 0.0038,0.02485 0.0096,0.04941 0.01367,0.07422 -0.295241,-0.102701 -0.646191,-0.106004 -1.037109,0.05469 -0.565652,0.234379 -1.142097,0.439155 -1.732422,0.603515 -0.324522,0.08083 -0.65318,0.142673 -0.980469,0.210938 -0.05291,-0.502348 -0.113637,-1.003801 -0.148438,-1.507813 -0.0829,-0.99729 -0.155289,-1.995914 -0.193359,-2.996094 -0.01919,-0.58666 -0.04444,-1.172701 -0.03906,-1.759765 0.442738,-0.04774 0.88512,-0.09746 1.328124,-0.142578 0.577776,-0.05332 1.144541,-0.157923 1.701172,-0.320313 0.303838,-0.09883 0.592103,-0.23517 0.865235,-0.392578 z m -1.111328,9.265625 c 0.01223,0.107196 0.02244,0.214916 0.0332,0.322266 0.01158,0.144409 0.02909,0.288024 0.04687,0.43164 -0.120755,0.06747 -0.237965,0.163301 -0.34961,0.277344 -0.09571,0.06641 -0.19178,0.132274 -0.287109,0.199219 -0.195978,0.146983 -0.33708,0.311038 -0.435547,0.482422 -0.227447,0.02768 -0.453429,0.03889 -0.683594,0.0293 -0.46563,0 -0.93283,-8.59e-4 -1.398437,-0.0059 -0.597879,-0.0084 -1.194134,-0.02555 -1.791016,-0.0625 -4.65e-4,-0.255924 -0.02073,-0.510716 -0.04297,-0.765625 0.156226,-0.01122 0.312749,-0.01206 0.46875,-0.02539 1.236771,-0.112291 2.457654,-0.343586 3.662109,-0.640626 0.262584,-0.07065 0.519571,-0.157418 0.777344,-0.242187 z M 38.228516,4.574219 c -0.104849,0.01097 -0.214741,0.03434 -0.328125,0.06836 -0.593352,0.19412 -1.118578,0.538825 -1.554688,0.984375 -0.107781,0.11012 -0.205843,0.22893 -0.308594,0.34375 -0.46364,0.61086 -0.841961,1.311155 -0.96289,2.078125 -0.02634,0.16709 -0.0301,0.33736 -0.04492,0.50586 0.01217,0.169489 0.01004,0.340062 0.03711,0.507812 0.120807,0.74858 0.520227,1.390794 1.076172,1.896484 0.14064,0.12793 0.297153,0.238292 0.445313,0.357422 1.05951,0.75124 2.266455,1.029782 3.519531,1.263672 0.213713,0.0308 0.426912,0.061 0.640625,0.0918 1.875107,0.26711 2.254013,-2.383281 0.378906,-2.650391 C 40.9498,9.996688 40.772863,9.970218 40.595706,9.945318 39.7804,9.795988 38.939157,9.646682 38.226565,9.197272 37.848447,8.932162 38.211065,9.19803 37.886722,8.92774 37.806122,8.86057 37.722668,8.817851 37.703128,8.703131 37.660338,8.349191 37.882887,8.013219 38.06055,7.726568 38.229797,7.515089 38.41212,7.307427 38.669925,7.207037 40.370697,6.696803 39.801254,4.409636 38.228519,4.574225 Z m 10.205078,0.794922 c -0.01082,-0.004 0.02216,0.0039 0.0332,0.0059 0.0066,0.0015 0.01292,0.0026 0.01953,0.0039 8.1e-5,0.002 -8.6e-5,0.0039 0,0.0059 -0.02533,-0.008 -0.03517,-0.01025 -0.05273,-0.01563 z m 9.642578,3.398437 c 0.02158,0.224795 0.05019,0.448748 0.06836,0.673828 0.03681,0.71993 0.08632,1.438253 0.123047,2.158203 0.0092,0.111473 0.02298,0.222419 0.03125,0.333985 -0.164071,0.104661 -0.320226,0.251447 -0.457031,0.449218 -0.06112,0.0904 -0.121519,0.181172 -0.193359,0.263672 -0.02473,0.0267 -0.04383,0.05898 -0.07031,0.08398 -0.02239,0.0211 -0.09928,0.04819 -0.07031,0.05859 -0.0016,8.89e-4 -0.01486,0.0099 -0.01172,0.0078 -0.146436,0.07695 -0.270731,0.159781 -0.441406,0.175781 -0.363564,0.07965 -0.737389,0.08344 -1.109376,0.0918 -0.05046,-0.01494 -0.102229,-0.02433 -0.154296,-0.0332 l 0.0039,-0.0039 c 0.543716,-0.20697 0.967047,-0.731224 0.822266,-1.541016 -0.07127,-0.39849 -0.03531,-0.196828 -0.107422,-0.611328 -0.10397,-0.6755 -0.192205,-1.352093 -0.226563,-2.035156 0.209758,3.98e-4 0.419149,0.0021 0.628906,0.002 0.351894,0.011 0.701769,-0.0066 1.050782,-0.05078 0.03866,-0.0044 0.07509,-0.01723 0.113281,-0.02344 z m 7.267578,5.824219 c -0.503005,0.01445 -1.004889,0.310924 -1.236328,0.982422 -0.05377,0.36587 -0.381907,0.620617 -0.626953,0.867187 -0.463135,0.3885 -0.984972,0.694594 -1.566407,0.871094 -0.332304,0.09857 -0.665695,0.1739 -1.013671,0.1875 -1.894036,0 -1.894036,2.677734 0,2.677734 0.598641,-0.0095 1.180144,-0.129265 1.753906,-0.291015 0.742569,-0.23365 1.456339,-0.570807 2.087891,-1.029297 0.144943,-0.10523 0.281457,-0.222794 0.421874,-0.333984 0.510187,-0.45177 0.991705,-0.957059 1.28711,-1.580079 0.07581,-0.15989 0.126203,-0.330823 0.189453,-0.496093 0.385732,-1.119163 -0.458534,-1.879554 -1.296875,-1.855469 z m -15.917969,6.125 c -0.105404,-0.0019 -0.215339,0.0055 -0.332031,0.02539 -0.158103,0.02952 -0.313825,0.07353 -0.458984,0.144531 -0.881757,0.53265 0.06437,-0.03928 -0.166016,0.105469 -0.04224,0.0198 -0.01,0.01093 -0.02734,0.02148 -0.08195,0.03043 -0.08271,0.0235 -0.183594,0.07227 -0.05601,0.01802 -0.113494,0.03031 -0.167968,0.05273 -0.298764,0.12887 -0.595614,0.263652 -0.898438,0.382812 -0.681842,0.29341 -1.368162,0.574469 -2.052734,0.861328 -0.777032,0.31555 -1.545701,0.651775 -2.326172,0.958985 -0.593904,0.22965 -1.200881,0.435695 -1.767578,0.728515 -0.09577,0.05401 -0.18503,0.118799 -0.279297,0.175782 -0.604962,0.236108 -1.208072,0.47845 -1.814453,0.710937 -1.92975,0.75318 -3.856995,1.511672 -5.808594,2.207031 -1.481719,0.516121 -2.974201,1.000336 -4.476562,1.453126 -1.067344,0.333709 -2.135494,0.663871 -3.214844,0.957031 -0.510641,0.13551 -1.025111,0.259684 -1.548828,0.333984 -1.514338,0.151439 -1.637267,1.900081 -0.650391,2.484375 -0.02698,0.169087 -0.0311,0.353365 0.0059,0.556641 0.176524,0.84084 0.2597,1.695558 0.34961,2.548828 0.158571,1.79322 0.250855,3.592105 0.322266,5.390625 0.06755,1.92341 0.08009,3.847094 0.08789,5.771484 0.0041,1.44687 0.0029,2.894917 0.002,4.341797 -0.0028,0.167524 0.0116,0.334494 0.01367,0.501953 -0.657826,0.441527 -0.940398,1.432524 -0.09766,2.169922 0.536521,0.44756 1.088952,0.875885 1.646484,1.296875 1.010206,0.78504 2.065047,1.50913 3.128907,2.21875 1.383725,0.92195 2.820882,1.754458 4.277343,2.554688 1.490102,0.81488 2.985475,1.620098 4.498047,2.392578 0.810775,0.41355 1.630729,0.811188 2.451172,1.205078 0.257028,0.12339 0.498382,0.166875 0.722656,0.160156 0.158809,0.913045 1.294352,1.591318 2.271485,0.736328 0.735893,-0.60568 1.467088,-1.217924 2.189453,-1.839843 1.545759,-1.38883 3.150745,-2.703353 4.767578,-4.007813 2.073102,-1.66999 4.180199,-3.298719 6.292969,-4.917969 1.886069,-1.43087 3.77,-2.863695 5.634765,-4.322265 1.324118,-1.03377 2.662235,-2.049638 3.984375,-3.085938 0.528833,-0.41971 1.035324,-0.866064 1.544922,-1.308594 0.272833,-0.236949 0.428885,-0.501904 0.494141,-0.767578 0.350202,-0.249119 0.587147,-0.678845 0.537109,-1.279297 -0.02653,-0.410925 -0.02972,-0.822641 -0.02734,-1.234375 0.107078,-0.222495 0.161982,-0.490144 0.132813,-0.808593 -0.04899,-0.53483 -0.105426,-1.068699 -0.128906,-1.605469 -0.05733,-1.13712 -0.05485,-2.275763 -0.06055,-3.414063 -0.01462,-1.2518 -0.03569,-2.503666 -0.103516,-3.753906 -0.03925,-0.7586 -0.07168,-1.517587 -0.150391,-2.273437 -0.01044,-0.10442 -0.02994,-0.199713 -0.05469,-0.291016 -0.0089,-0.683736 -0.0051,-1.367463 0.03516,-2.050781 0.04152,-0.79904 0.08674,-1.599391 0.177735,-2.394532 0.07167,-0.788385 -0.357964,-1.268598 -0.888672,-1.447265 -0.374933,-0.161801 -0.827971,-0.155099 -1.251953,0.128906 -0.160943,-0.208206 -0.397865,-0.385164 -0.72461,-0.496094 -0.09902,-0.03351 -0.197855,-0.06611 -0.296875,-0.09961 -0.683871,-0.24556 -1.377635,-0.457331 -2.078125,-0.650391 -0.633965,-0.17853 -1.280011,-0.310302 -1.908203,-0.507812 -0.436461,-0.1494 -0.876077,-0.299595 -1.285156,-0.515625 -1.655685,-0.91982 -2.956466,1.421977 -1.300781,2.341797 0.54515,0.29717 1.131293,0.505901 1.716797,0.707031 0.672162,0.22426 1.369452,0.360234 2.050781,0.552734 0.344699,0.09572 0.682176,0.211901 1.023437,0.31836 -0.534476,0.289764 -1.069194,0.580738 -1.605468,0.867187 -0.689992,0.35176 -1.374865,0.714023 -2.048829,1.095703 -0.461996,0.26855 -0.924709,0.535958 -1.367187,0.835938 -1.606139,1.00384 -0.186217,3.275324 1.419922,2.271484 0.418196,-0.28449 0.855753,-0.537185 1.292968,-0.791015 0.631745,-0.35666 1.273548,-0.696091 1.919922,-1.025391 0.704783,-0.37502 1.405174,-0.758962 2.107422,-1.138672 0.127519,-0.06445 0.249379,-0.139088 0.375,-0.207031 -2.74e-4,0.0052 -0.0017,0.01039 -0.002,0.01563 -0.07726,1.31746 -0.0451,2.635535 0.0039,3.953125 0.03696,1.2327 0.100869,2.464745 0.142579,3.697265 0.0099,0.548961 0.03717,1.097985 0.06055,1.646485 0.0065,0.151472 0.03334,0.284279 0.07031,0.410156 0.006,0.782616 0.01826,1.565635 0.05664,2.347656 0.01251,0.286007 0.04402,0.57029 0.06836,0.855469 -0.03758,0.134354 -0.06466,0.276758 -0.06641,0.439453 -0.0077,0.721689 -0.01855,1.444875 0.01758,2.166016 -0.03646,0.02726 -0.07327,0.04872 -0.109375,0.08008 -0.475627,0.41311 -0.948324,0.828263 -1.441406,1.220703 -1.321444,1.03575 -2.659124,2.052558 -3.982422,3.085938 -1.857752,1.45323 -3.734338,2.88097 -5.613282,4.30664 -2.130458,1.63281 -4.255255,3.273051 -6.345703,4.957032 -1.435324,1.15807 -2.855037,2.333243 -4.240234,3.550781 0.02584,-0.654159 0.04038,-1.308229 0.03711,-1.962891 -0.02627,-1.785 -0.07682,-3.570526 -0.167968,-5.353516 -0.09915,-2.196379 -0.174976,-4.392806 -0.171876,-6.591796 0.0059,-1.973 0.0083,-3.947482 0.06055,-5.919922 0.02792,-0.864286 0.06558,-1.727911 0.103516,-2.591797 0.247581,-0.149174 0.488606,-0.309312 0.738281,-0.455078 0.840418,-0.49255 1.705449,-0.939111 2.582032,-1.363281 0.833307,-0.42066 1.695053,-0.784025 2.541015,-1.177735 0.267374,-0.1266 0.529073,-0.261077 0.791016,-0.398437 1.677015,-0.88034 0.432874,-3.253377 -1.244141,-2.373047 -0.224117,0.11781 -0.449099,0.23486 -0.677734,0.34375 -0.858281,0.3997 -1.730827,0.768052 -2.576172,1.195312 -0.938451,0.45496 -1.865649,0.933268 -2.765625,1.460938 -0.569929,0.332776 -1.13579,0.673699 -1.685547,1.039062 -0.04946,-0.516882 -0.389271,-1.009382 -1.103516,-1.175781 -1.460847,-0.3403 -2.919756,-0.689292 -4.376953,-1.044922 -1.767002,-0.43496 -3.537715,-0.868139 -5.263672,-1.449219 -0.615483,-0.224747 -1.222456,-0.470915 -1.832031,-0.710937 0.16941,-0.05257 0.34047,-0.09942 0.509766,-0.152344 1.529807,-0.46092 3.049714,-0.955329 4.558594,-1.480469 1.982991,-0.70586 3.941764,-1.475034 5.902343,-2.240234 0.147668,-0.05661 0.293817,-0.117018 0.441407,-0.173828 0.447612,0.115474 0.963293,0.0018 1.386718,-0.492188 0.0632,-0.05085 0.142049,-0.08805 0.212891,-0.134765 0.795244,-0.311155 1.592615,-0.616537 2.384765,-0.935547 0.211508,-0.08518 0.380556,-0.19815 0.515626,-0.326172 0.424928,-0.1773 0.850643,-0.352429 1.277343,-0.525391 0.701606,-0.2934 1.406591,-0.582872 2.105469,-0.882812 0.303829,-0.11985 0.600525,-0.255436 0.900391,-0.384766 0.09924,-0.02943 0.22017,-0.07862 0.263671,-0.101562 0.06264,-0.02416 0.126862,-0.04895 0.189454,-0.07813 0.04818,-0.0081 0.151466,-0.08611 0.152343,-0.0918 1.504538,-0.448406 1.181755,-2.581796 -0.330078,-2.609375 z m 7.9375,16.355469 c -1.343337,0.05705 -1.850471,2.054732 -0.292969,2.621093 0.663258,0.2738 1.256514,0.6984 1.851563,1.09375 1.0424,0.73318 2.088347,1.461748 3.162109,2.148438 1.596208,1.01956 3.037615,-1.238263 1.441407,-2.257813 -1.061334,-0.67701 -2.091767,-1.399483 -3.123047,-2.121093 -0.772056,-0.51209 -1.544898,-1.047787 -2.416016,-1.378907 -0.2225,-0.08091 -0.431141,-0.113619 -0.623047,-0.105468 z m -6.886719,1.707031 c -0.343572,0.03271 -0.693668,0.210219 -0.984374,0.583984 -0.589063,0.75393 -1.083108,1.575222 -1.583985,2.388672 -0.48062,0.771 -0.937607,1.556141 -1.400391,2.337891 -0.964854,1.62985 1.339833,2.995084 2.304688,1.365234 0.454916,-0.76846 0.904408,-1.540988 1.376953,-2.298828 0.449542,-0.73047 0.890687,-1.470287 1.417969,-2.148438 0.872119,-1.121294 -0.100143,-2.32665 -1.13086,-2.228515 z m 3.841797,1.376953 c -0.660531,-0.110087 -1.397045,0.245553 -1.552734,1.179688 -0.179402,0.86626 -0.333305,1.736994 -0.480469,2.609374 -0.210604,1.39348 -0.438247,2.785415 -0.65625,4.177735 -0.292958,1.87124 2.353528,2.285302 2.646485,0.414062 0.216324,-1.38191 0.441816,-2.763364 0.65039,-4.146484 0.147454,-0.87415 0.302356,-1.744921 0.480469,-2.613281 0.155689,-0.934135 -0.427359,-1.511007 -1.087891,-1.621094 z"
     id="path242"
     inkscape:connector-curvature="0" />
</svg>
